<?xml version="1.0" encoding="UTF-8" standalone="no"?>
<svg xmlns:rdf="http://www.w3.org/1999/02/22-rdf-syntax-ns#" xmlns="http://www.w3.org/2000/svg" version="1.1" xmlns:cc="http://creativecommons.org/ns#" xmlns:dc="http://purl.org/dc/elements/1.1/" viewBox="0 0 35.433072 35.433068">
 <g transform="translate(2.3056e-7 -1016.9)">
  <g transform="translate(423.41 901.79)">
   <path d="m-396.93 150.43c0 1.714-1.389 3.104-3.104 3.104h-10.332c-1.715 0-3.103-1.391-3.103-3.104v-0.603c0-1.713 1.388-3.104 3.103-3.104h10.332c1.714 0 3.104 1.392 3.104 3.104v0.603z" fill="#56584b"/>
   <path d="m-405.07 120.42c0 0.806-0.652 1.458-1.458 1.458-0.805 0-1.458-0.652-1.458-1.458v-7.771c0-0.807 0.653-1.459 1.458-1.459 0.806 0 1.458 0.652 1.458 1.459v7.771z" fill="#4e4e3c"/>
   <circle cy="133.34" cx="-390.84" r="4.829" fill="#56584b"/>
   <circle cy="133.34" cx="-420.58" r="4.829" fill="#56584b"/>
   <circle cy="134.59" cx="-406.21" r="14.426" fill="#f3d300"/>
   <g transform="translate(-1925.6 -235.74)">
    <path fill="#56584b" d="m1530.7 369.46c0 1.657-1.343 3.001-3 3.001h-16.442c-1.657 0-3.001-1.344-3.001-3.001v-1.062c0-1.657 1.344-3.002 3.001-3.002h16.442c1.657 0 3 1.345 3 3.002v1.062z"/>
    <path fill="#00a2f3" d="m1523.2 377.36c0 0.546-0.443 0.99-0.99 0.99h-5.433c-0.547 0-0.992-0.444-0.992-0.99v-0.352c0-0.548 0.445-0.99 0.992-0.99h5.433c0.547 0 0.99 0.442 0.99 0.99v0.352z"/>
    <circle cy="369.07" cx="1512.4" r="2.553" fill="#f3d300"/>
    <circle cy="369.1" cx="1512.5" r="1.928" fill="#56584b"/>
    <circle cy="369.04" cx="1512.5" r="0.754" fill="#00a2f3"/>
    <circle cy="369.07" cx="1525.5" r="2.552" fill="#f3d300"/>
    <circle cy="369.1" cx="1525.5" r="1.929" fill="#56584b"/>
    <circle cy="369.04" cx="1525.6" r="0.754" fill="#00a2f3"/>
   </g>
  </g>
 </g>
</svg>
