<?xml version="1.0" encoding="UTF-8" standalone="no"?>
<svg xmlns:rdf="http://www.w3.org/1999/02/22-rdf-syntax-ns#" xmlns="http://www.w3.org/2000/svg" enable-background="new 0 0 1920 600" xml:space="preserve" height="396.8" width="535.3" version="1.1" y="0px" x="0px" xmlns:cc="http://creativecommons.org/ns#" xmlns:dc="http://purl.org/dc/elements/1.1/" viewBox="0 0 535.2967 396.79849"><radialGradient id="b" gradientUnits="userSpaceOnUse" cy="396.33" cx="-25.339" gradientTransform="matrix(2.4471 0 0 2.0598 329.64 -617.96)" r="516.52"><stop stop-color="#F1EFF5" offset="0"/><stop stop-color="#EEEDF5" offset=".3241"/><stop stop-color="#E6E6F4" offset=".5187"/><stop stop-color="#D8D9F2" offset=".679"/><stop stop-color="#C4C8F0" offset=".8207"/><stop stop-color="#AAB2ED" offset=".949"/><stop stop-color="#9DA7EB" offset="1"/></radialGradient><rect height="616.8" width="1935.3" y="-110" x="-700" fill="url(#b)"/><rect opacity=".05" height="42.089" width="1427" y="323.66" x="-446.15"/><linearGradient id="a" y2="179.28" gradientUnits="userSpaceOnUse" y1="545.26" gradientTransform="translate(-692.66 -105.79)" x2="926.81" x1="1031.7"><stop stop-color="#878787" offset="0"/><stop stop-color="#181617" offset="1"/></linearGradient><rect height="286.08" width="348.79" y="47.169" x="93.198" fill="url(#a)"/><g fill="#3c404e" transform="translate(-692.66 -105.79)"><circle cy="333.31" cx="942.79" r="4.957"/><circle cy="333.31" cx="969.5" r="4.957"/><circle cy="333.31" cx="955.5" r="4.957"/></g><g fill="#f3ee00" transform="translate(-692.66 -105.79)"><rect y="317.38" width="3.218" x="954.74" height="2.401"/><rect y="317.38" width="3.218" x="959.6" height="2.401"/><rect y="317.38" width="3.218" x="964.45" height="2.401"/><rect y="317.38" width="3.218" x="969.3" height="2.401"/></g><rect transform="matrix(0.69 .72380 -.72380 0.69 0 0)" height="4.011" width="28.363" y="-91.755" x="314.68" fill="#6d6e71"/><rect transform="matrix(0.69 .72380 -.72380 0.69 0 0)" height="4.011" width="28.363" y="-85.533" x="315.02" fill="#6d6e71"/><g fill="#58595b" transform="translate(-692.66 -105.79)"><polygon points="989.5 300.92 998.93 307.71 1e3 306.84 992.23 298.74"/><polygon points="998.61 293.61 1003.2 304.28 1002.1 305.15 995.88 295.8"/></g><rect transform="matrix(.69581 .71822 -.71822 .69581 0 0)" height="26.608" width="4.8129" y="-77.642" x="305.28" fill="#6d6e71"/><rect transform="rotate(45.92)" height="27.201" width="4.8142" y="-78.794" x="313.45" fill="#6d6e71"/><rect height="25.877" width="12.146" y="203.07" x="242.33" fill="#f3ee00"/><circle cy="194.88" cx="248.4" r="12.146" fill="#3c404e"/><circle cy="194.88" cx="248.4" r="6.205" fill="#6d6e71"/><circle cy="194.88" cx="248.4" r="3.036" fill="#f3ee00"/><circle cy="166.1" cx="275.86" r="7.979" fill="#3c404e"/><circle cy="166.1" cx="275.86" r="4.076" fill="#6d6e71"/><circle cy="166.1" cx="275.86" r="1.995" fill="#f3ee00"/><path fill="#3c404e" d="m308.44 185.87c-6.12 5.082-8.33 6.918-13.089 10.871-3.002-3.614-2.506-8.979 1.108-11.98 3.6-3 8.96-2.5 11.98 1.11z"/><polygon points="1e3 292.56 1000.1 293.61 989.5 302.22 988.59 302.04" fill="#f3ee00" transform="translate(-692.66 -105.79)"/><rect height="15.05" width="29.234" y="213.75" x="254.48" fill="#3c404e"/><rect height="9.456" width="3.933" y="216.35" x="282.77" fill="#3c404e"/><g fill="#010101" transform="translate(-692.66 -105.79)"><circle cy="239.93" cx="944.39" r="4.957"/><circle cy="239.93" cx="971.1" r="4.957"/><circle cy="239.93" cx="957.11" r="4.957"/></g><g fill="#a60000" transform="translate(-692.66 -105.79)"><rect y="224.01" width="3.218" x="956.35" height="2.401"/><rect y="224.01" width="3.218" x="961.2" height="2.401"/><rect y="224.01" width="3.218" x="966.05" height="2.401"/><rect y="224.01" width="3.218" x="970.9" height="2.401"/></g><rect transform="rotate(43.874)" height="4.0112" width="28.364" y="-131.79" x="228.74" fill="#242422"/><rect transform="matrix(.72091 .69302 -.69302 .72091 0 0)" height="4.0119" width="28.361" y="-125.58" x="229.03" fill="#242422"/><g fill="#0e0e0d" transform="translate(-692.66 -105.79)"><polygon points="963.47 199.36 973.18 205.72 974.22 204.81 966.1 197.05"/><polygon points="972.25 191.66 977.3 202.11 976.26 203.02 969.62 193.96"/></g><rect transform="rotate(1.3352)" height="26.607" width="4.8129" y="67.955" x="247.33" fill="#242422"/><rect transform="rotate(1.3638)" height="27.199" width="4.8129" y="66.722" x="255.48" fill="#242422"/><rect height="25.876" width="12.146" y="109.69" x="243.93" fill="#a60000"/><circle cy="101.51" cx="250.01" r="12.146" fill="#010101"/><circle cy="101.51" cx="250.01" r="6.205" fill="#242422"/><circle cy="101.51" cx="250.01" r="3.037" fill="#a60000"/><circle cy="68.949" cx="251.76" r="7.979" fill="#010101"/><circle cy="68.949" cx="251.76" r="4.077" fill="#242422"/><circle cy="68.949" cx="251.76" r="1.995" fill="#a60000"/><path fill="#010101" d="m281.98 83.809c-5.893 5.343-8.021 7.273-12.604 11.429-3.156-3.479-2.894-8.859 0.586-12.016 3.47-3.15 8.85-2.89 12.01 0.59z"/><polygon points="973.6 190.54 973.77 191.59 963.52 200.66 962.61 200.51" fill="#a60000" transform="translate(-692.66 -105.79)"/><rect height="15.051" width="29.234" y="120.37" x="256.08" fill="#010101"/><rect height="9.456" width="3.933" y="122.97" x="284.37" fill="#010101"/><g fill="#4e3c42" transform="translate(-692.66 -105.79)"><circle cy="333.31" cx="1071.5" r="4.957"/><circle cy="333.31" cx="1044.8" r="4.957"/><circle cy="333.31" cx="1058.8" r="4.957"/></g><g fill="#00aaf3" transform="translate(-692.66 -105.79)"><rect y="317.38" width="3.218" x="1056.4" height="2.401"/><rect y="317.38" width="3.218" x="1051.5" height="2.401"/><rect y="317.38" width="3.218" x="1046.7" height="2.401"/><rect y="317.38" width="3.218" x="1041.8" height="2.401"/></g><rect transform="matrix(-.96175 .27392 -.27392 -.96175 0 0)" height="4.0108" width="28.362" y="-264.81" x="-333.92" fill="#716d6e"/><rect transform="matrix(-.96175 .27392 -.27392 -.96175 0 0)" height="4.0118" width="28.361" y="-271.05" x="-333.68" fill="#716d6e"/><g fill="#5b5859" transform="translate(-692.66 -105.79)"><polygon points="1058.2 284.91 1046.7 285.98 1046.2 284.68 1057 281.64"/><polygon points="1054.1 273.98 1044.7 280.85 1045.2 282.15 1055.3 277.26"/></g><rect transform="matrix(-.89322 -.44961 .44961 -.89322 0 0)" height="26.607" width="4.8129" y="-2.4921" x="-433.02" fill="#716d6e"/><rect transform="matrix(-.89328 -.44949 .44949 -.89328 0 0)" height="27.2" width="4.8131" y="-2.1141" x="-424.88" fill="#716d6e"/><rect height="25.877" width="12.146" y="203.07" x="374.54" fill="#00aaf3"/><circle cy="194.88" cx="380.64" r="12.146" fill="#4e3c42"/><circle cy="194.88" cx="380.64" r="6.205" fill="#716d6e"/><circle cy="194.88" cx="380.64" r="3.037" fill="#00aaf3"/><circle cy="166.12" cx="394.44" r="7.979" fill="#4e3c42"/><circle cy="166.12" cx="394.44" r="4.076" fill="#716d6e"/><circle cy="166.12" cx="394.44" r="1.995" fill="#00aaf3"/><path fill="#4e3c42" d="m360.34 165.26c2.697 7.483 3.671 10.186 5.769 16.006 4.42-1.592 6.712-6.467 5.119-10.887-1.6-4.42-6.5-6.71-10.9-5.12z"/><polygon points="1053.4 272.37 1052.8 273.21 1057.6 286.03 1058.5 286.33" fill="#00aaf3" transform="translate(-692.66 -105.79)"/><rect height="15.05" width="29.234" y="213.75" x="345.34" fill="#4e3c42"/><rect height="9.456" width="3.933" y="216.35" x="342.34" fill="#4e3c42"/><path fill="#5b3420" d="m412.94 97.009c0.052-0.255 0.546-2.525 2.04-3.521 1.456-0.971 5.442-0.318 6.226-0.178l-0.267 1.49c-1.971-0.353-4.489-0.473-5.12-0.053-0.827 0.551-1.288 2.038-1.396 2.562l-1.4-0.3z"/><rect height="1.532" width="11.782" y="98.469" x="394.94" fill="#909295"/><rect height="1.531" width="11.782" y="100.22" x="394.94" fill="#909295"/><rect height="1.896" width="8.935" y="99.089" x="403.74" fill="#5b3420"/><rect height="16.246" width="3.12" y="91.799" x="389.74" fill="#5b3420"/><rect height="6.428" width="3.136" y="96.709" x="392.74" fill="#f38c00"/><rect height="6.428" width="0.783" y="96.709" x="392.74" fill="#5b3420"/><polygon points="1102.9 204.36 1102.9 203.29 1105.2 202.56 1117.4 202.56 1117.4 203.64 1105.2 203.64" fill="#5b3420" transform="translate(-692.66 -105.79)"/><rect height="1.577" width="1.576" y="96.519" x="418.34" fill="#909295"/><rect height="1.575" width="1.576" y="96.519" x="421.64" fill="#909295"/><rect height="1.072" width="11" y="98.729" x="414.94" fill="#5b3420"/><rect height="1.577" width="1.576" y="98.469" x="419.54" fill="#909295"/><rect height="1.576" width="1.576" y="98.479" x="422.84" fill="#909295"/><rect height="1.072" width="10.342" y="100.62" x="414.74" fill="#5b3420"/><rect height="1.576" width="1.576" y="100.36" x="418.64" fill="#909295"/><rect height="1.576" width="1.576" y="100.37" x="422.04" fill="#909295"/><polygon points="1103.2 208.72 1103.2 207.64 1105.3 208.27 1116.4 208.27 1116.4 209.34 1105.3 209.34" fill="#5b3420" transform="translate(-692.66 -105.79)"/><rect height="1.576" width="1.577" y="102.22" x="417.34" fill="#909295"/><rect height="1.576" width="1.576" y="102.23" x="420.74" fill="#909295"/><rect height="7.601" width="2.805" y="96.199" x="412.24" fill="#f38c00"/><rect height="5.615" width="2.164" y="97.359" x="408.54" fill="#f38c00"/><rect height="5.025" width="1.907" y="97.529" x="403.04" fill="#5b3420"/><rect transform="rotate(96.243)" height="1.255" width="1.828" y="-426.88" x="46.923" fill="#909295"/><rect transform="rotate(43.354)" height="1.256" width="1.827" y="-216.54" x="365.73" fill="#909295"/><path fill="#5b3420" d="m324.24 97.009c-0.052-0.255-0.546-2.525-2.04-3.521-1.456-0.971-5.441-0.318-6.226-0.178l0.267 1.49c1.971-0.353 4.489-0.474 5.12-0.053 0.827 0.551 1.288 2.036 1.396 2.562l1.4-0.3z"/><rect height="1.531" width="11.782" y="98.469" x="330.54" fill="#909295"/><rect height="1.53" width="11.782" y="100.22" x="330.54" fill="#909295"/><rect height="1.896" width="8.935" y="99.089" x="324.54" fill="#5b3420"/><rect height="16.247" width="3.12" y="91.799" x="344.34" fill="#5b3420"/><rect height="6.428" width="3.136" y="96.709" x="341.34" fill="#f38c00"/><rect height="6.428" width="0.784" y="96.709" x="343.64" fill="#5b3420"/><polygon points="1019.6 204.36 1019.6 203.29 1017.3 202.56 1005.1 202.56 1005.1 203.64 1017.3 203.64" fill="#5b3420" transform="translate(-692.66 -105.79)"/><rect height="1.577" width="1.576" y="96.519" x="317.34" fill="#909295"/><rect height="1.575" width="1.576" y="96.519" x="313.94" fill="#909295"/><rect height="1.071" width="10.999" y="98.729" x="311.24" fill="#5b3420"/><rect height="1.577" width="1.576" y="98.469" x="316.14" fill="#909295"/><rect height="1.576" width="1.576" y="98.479" x="312.74" fill="#909295"/><rect height="1.072" width="10.342" y="100.62" x="312.14" fill="#5b3420"/><rect height="1.576" width="1.576" y="100.36" x="317.04" fill="#909295"/><rect height="1.576" width="1.576" y="100.37" x="313.64" fill="#909295"/><polygon points="1019.3 208.72 1019.3 207.64 1017.2 208.27 1006.1 208.27 1006.1 209.34 1017.2 209.34" fill="#5b3420" transform="translate(-692.66 -105.79)"/><rect height="1.576" width="1.576" y="102.22" x="318.24" fill="#909295"/><rect height="1.576" width="1.576" y="102.23" x="314.84" fill="#909295"/><rect height="7.601" width="2.805" y="96.199" x="322.14" fill="#f38c00"/><rect height="5.615" width="2.164" y="97.359" x="326.54" fill="#f38c00"/><rect height="5.025" width="1.907" y="97.529" x="332.34" fill="#5b3420"/><rect transform="rotate(83.757)" height="1.256" width="1.828" y="-307.18" x="126.97" fill="#909295"/><rect transform="rotate(136.66)" height="1.2561" width="1.8281" y="-290.74" x="-170.27" fill="#909295"/><rect height="25.764" width="2.021" y="58.899" x="367.64" fill="#f1c257"/><path fill="#909295" d="m369.94 123.92v-4.724h-1.894v4.718c-3.907 0.462-6.949 3.789-6.949 7.817 0 0.364 0.294 0.658 0.659 0.658h2.443c0.363 0 0.657-0.294 0.657-0.658s-0.294-0.659-0.657-0.659h-1.26c0.33-3.04 2.91-5.415 6.035-5.415 3.126 0 5.705 2.375 6.035 5.415h-1.259c-0.364 0-0.66 0.294-0.66 0.659s0.295 0.658 0.66 0.658h2.442c0.364 0 0.66-0.295 0.66-0.658 0.1-4.04-3-7.35-6.8-7.83z"/><path fill="#5b3420" d="m373.14 120.03c0 1.12-0.906 2.027-2.026 2.027h-4.298c-1.118 0-2.026-0.907-2.026-2.026v-0.598c0-1.119 0.909-2.027 2.026-2.027h4.298c1.12 0 2.026 0.908 2.026 2.027v0.6z"/><path fill="#f38c00" d="m373.34 134.33c0 2.245-1.818 4.062-4.062 4.062h-0.617c-2.244 0-4.062-1.817-4.062-4.062v-3.159c0-2.243 1.818-4.062 4.062-4.062h0.617c2.244 0 4.062 1.819 4.062 4.062v3.16z"/><path fill="#f38c00" d="m386.54 89.939c0-0.129 0.01-0.258 0.01-0.387 0-9.767-7.918-17.684-17.684-17.684-9.768 0-17.685 7.917-17.685 17.684 0 0.129 0.01 0.258 0.01 0.387h-4.269v30.334h43.629v-30.334h-3.9z"/><path d="m372.74 128.34" stroke="#a96548" stroke-miterlimit="10" stroke-width=".336" fill="none"/><path fill="#f3c25d" d="m360.44 86.279c-0.042-0.055-0.725-0.94-0.198-2.016l0.082-0.169c0.636-1.32 2.125-4.412 7.456-4.461h0.123c5.332 0.05 6.82 3.141 7.456 4.461l0.082 0.169c0.527 1.076-0.156 1.961-0.185 1.998l-2.605 3.743-4.808-0.011-4.81 0.011-2.7-3.72z"/><path fill="#5b3420" d="m367.74 79.969h0.075c5.123 0.048 6.497 2.9 7.157 4.271l0.083 0.171c0.43 0.878-0.125 1.613-0.172 1.676l-2.491 3.581-4.635-0.01-4.632 0.01-2.52-3.619c-0.01-0.007-0.583-0.741-0.144-1.638l0.083-0.171c0.66-1.371 2.035-4.224 7.156-4.271h-0.2m0.1-0.68c-0.022 0-0.042 0.003-0.064 0.003s-0.042-0.003-0.064-0.003v0.005c-5.776 0.053-7.213 3.547-7.836 4.818-0.633 1.292 0.224 2.356 0.224 2.356l2.693 3.87 4.984-0.011 4.984 0.011 2.692-3.87s0.857-1.063 0.224-2.355c-0.623-1.272-2.06-4.765-7.837-4.819z"/><polyline points="1059.1 195.15 1057.8 190.33 1061.6 195.19" fill="#4a2d1e" transform="translate(-692.66 -105.79)"/><path fill="#5b3420" d="m384.44 114.52c0.212-1.058 0.324-2.153 0.324-3.273 0-9.178-7.44-16.619-16.618-16.619s-16.618 7.441-16.618 16.619c0 1.12 0.112 2.215 0.324 3.273h32.6z"/><g fill="#f38c00" transform="translate(-692.66 -105.79)"><rect y="199.92" width="2.014" x="1046.6" height="21.874"/><rect y="199.92" width="2.014" x="1051.8" height="21.874"/><rect y="199.92" width="2.014" x="1057" height="21.874"/><rect y="199.92" width="2.014" x="1062.3" height="21.874"/><rect y="199.92" width="2.015" x="1067.5" height="21.873"/><rect y="199.92" width="2.014" x="1072.8" height="21.873"/></g><path fill="#5b5020" d="m205.91 190.23c0.052-0.255 0.546-2.526 2.04-3.521 1.457-0.971 5.442-0.318 6.226-0.178l-0.267 1.489c-1.971-0.353-4.489-0.473-5.12-0.053-0.827 0.551-1.288 2.038-1.396 2.562l-1.48-0.3z"/><rect height="1.532" width="11.782" y="191.68" x="187.89" fill="#929095"/><rect height="1.531" width="11.782" y="193.43" x="187.89" fill="#929095"/><rect height="1.896" width="8.935" y="192.3" x="196.73" fill="#5b5020"/><rect height="16.245" width="3.12" y="185.01" x="182.72" fill="#5b5020"/><rect height="6.428" width="3.136" y="189.92" x="185.73" fill="#f3ee00"/><rect height="6.428" width="0.784" y="189.92" x="185.73" fill="#5b5020"/><polygon points="895.86 297.57 895.86 296.5 898.17 295.78 910.36 295.78 910.36 296.85 898.2 296.85" fill="#5b5020" transform="translate(-692.66 -105.79)"/><rect height="1.577" width="1.576" y="189.73" x="211.27" fill="#929095"/><rect height="1.576" width="1.576" y="189.73" x="214.67" fill="#929095"/><rect height="1.072" width="10.999" y="191.94" x="207.9" fill="#5b5020"/><rect height="1.576" width="1.576" y="191.68" x="212.47" fill="#929095"/><rect height="1.575" width="1.576" y="191.69" x="215.87" fill="#929095"/><rect height="1.072" width="10.342" y="193.83" x="207.68" fill="#5b5020"/><rect height="1.577" width="1.576" y="193.57" x="211.59" fill="#929095"/><rect height="1.575" width="1.576" y="193.58" x="214.99" fill="#929095"/><polygon points="896.21 301.93 896.21 300.86 898.32 301.48 909.42 301.48 909.42 302.55 898.32 302.55" fill="#5b5020" transform="translate(-692.66 -105.79)"/><rect height="1.575" width="1.577" y="195.43" x="210.33" fill="#929095"/><rect height="1.576" width="1.576" y="195.44" x="213.73" fill="#929095"/><rect height="7.601" width="2.805" y="189.41" x="205.25" fill="#f3ee00"/><rect height="5.615" width="2.164" y="190.57" x="201.48" fill="#f3ee00"/><rect height="5.025" width="1.906" y="190.74" x="195.97" fill="#5b5020"/><rect transform="rotate(96.248)" height="1.255" width="1.8271" y="-231.2" x="162.01" fill="#929095"/><rect transform="rotate(43.354)" height="1.256" width="1.827" y="-6.6548" x="279.19" fill="#929095"/><path fill="#5b5020" d="m117.24 190.23c-0.052-0.256-0.546-2.526-2.04-3.521-1.457-0.971-5.442-0.318-6.226-0.178l0.267 1.489c1.971-0.353 4.489-0.474 5.12-0.053 0.827 0.551 1.288 2.036 1.396 2.562l1.48-0.3z"/><rect height="1.531" width="11.782" y="191.68" x="123.48" fill="#929095"/><rect height="1.529" width="11.782" y="193.43" x="123.48" fill="#929095"/><rect height="1.896" width="8.935" y="192.3" x="117.49" fill="#5b5020"/><rect height="16.247" width="3.12" y="185.01" x="137.32" fill="#5b5020"/><rect height="6.429" width="3.136" y="189.92" x="134.29" fill="#f3ee00"/><rect height="6.429" width="0.784" y="189.92" x="136.64" fill="#5b5020"/><polygon points="812.61 297.57 812.61 296.5 810.31 295.78 798.11 295.78 798.11 296.85 810.28 296.85" fill="#5b5020" transform="translate(-692.66 -105.79)"/><rect height="1.577" width="1.576" y="189.73" x="110.3" fill="#929095"/><rect height="1.576" width="1.576" y="189.73" x="106.91" fill="#929095"/><rect height="1.071" width="10.999" y="191.94" x="104.25" fill="#5b5020"/><rect height="1.576" width="1.576" y="191.68" x="109.11" fill="#929095"/><rect height="1.575" width="1.576" y="191.69" x="105.71" fill="#929095"/><rect height="1.072" width="10.342" y="193.83" x="105.13" fill="#5b5020"/><rect height="1.577" width="1.576" y="193.57" x="109.99" fill="#929095"/><rect height="1.575" width="1.576" y="193.58" x="106.59" fill="#929095"/><polygon points="812.26 301.93 812.26 300.85 810.15 301.48 799.05 301.48 799.05 302.55 810.15 302.55" fill="#5b5020" transform="translate(-692.66 -105.79)"/><rect height="1.575" width="1.576" y="195.43" x="111.24" fill="#929095"/><rect height="1.576" width="1.576" y="195.44" x="107.85" fill="#929095"/><rect height="7.601" width="2.805" y="189.41" x="115.1" fill="#f3ee00"/><rect height="5.615" width="2.164" y="190.57" x="119.51" fill="#f3ee00"/><rect height="5.025" width="1.906" y="190.74" x="125.28" fill="#5b5020"/><rect transform="rotate(83.752)" height="1.255" width="1.8271" y="-91.281" x="197.18" fill="#929095"/><rect transform="rotate(136.66)" height="1.2561" width="1.8281" y="-216.43" x="44.233" fill="#929095"/><rect height="25.764" width="2.021" y="152.11" x="160.66" fill="#c4f157"/><path fill="#929095" d="m162.88 217.13v-4.725h-1.894v4.719c-3.907 0.462-6.949 3.789-6.949 7.817 0 0.364 0.294 0.658 0.658 0.658h2.444c0.363 0 0.657-0.294 0.657-0.658s-0.294-0.658-0.657-0.658h-1.26c0.33-3.04 2.91-5.415 6.035-5.415 3.126 0 5.705 2.375 6.035 5.415h-1.258c-0.365 0-0.66 0.294-0.66 0.658s0.295 0.658 0.66 0.658h2.441c0.364 0 0.66-0.295 0.66-0.658-0.01-4.02-3.03-7.34-6.92-7.82z"/><path fill="#5b5020" d="m166.11 213.24c0 1.12-0.906 2.027-2.026 2.027h-4.297c-1.118 0-2.026-0.907-2.026-2.026v-0.599c0-1.119 0.908-2.027 2.026-2.027h4.297c1.12 0 2.026 0.908 2.026 2.027v0.6z"/><path fill="#f3ee00" d="m166.3 227.54c0 2.245-1.818 4.062-4.062 4.062h-0.617c-2.243 0-4.062-1.817-4.062-4.062v-3.158c0-2.243 1.818-4.062 4.062-4.062h0.617c2.244 0 4.062 1.818 4.062 4.062v3.16z"/><path fill="#f3ee00" d="m179.48 183.15c0.002-0.129 0.01-0.258 0.01-0.388 0-9.767-7.918-17.684-17.685-17.684s-17.684 7.917-17.684 17.684c0 0.13 0.007 0.259 0.009 0.388h-4.27v30.334h43.63v-30.33h-4.01z"/><path d="m165.71 221.55" stroke="#a99448" stroke-miterlimit="10" stroke-width=".336" fill="none"/><path fill="#d1f35d" d="m153.38 179.49c-0.042-0.055-0.725-0.94-0.198-2.016l0.082-0.169c0.636-1.32 2.125-4.412 7.455-4.461h0.123c5.331 0.05 6.82 3.141 7.456 4.461l0.082 0.169c0.533 1.087-0.177 1.988-0.184 1.997l-2.606 3.745-4.808-0.011-4.81 0.011-2.59-3.72z"/><path fill="#5b5020" d="m160.76 173.18h0.076c5.123 0.048 6.496 2.9 7.156 4.271l0.083 0.171c0.43 0.878-0.125 1.613-0.172 1.677l-2.491 3.581-4.635-0.01-4.632 0.01-2.516-3.613c-0.024-0.031-0.578-0.767-0.148-1.645l0.083-0.171c0.66-1.371 2.034-4.224 7.156-4.271l0.04-0.01m0.08-0.68c-0.022 0-0.042 0.003-0.064 0.003s-0.042-0.003-0.064-0.003v0.005c-5.776 0.054-7.213 3.547-7.836 4.819-0.633 1.292 0.224 2.356 0.224 2.356l2.693 3.87 4.984-0.011 4.984 0.011 2.692-3.87s0.857-1.064 0.224-2.356c-0.623-1.272-2.06-4.765-7.836-4.819v-0.01h0.02z"/><polyline points="852.03 288.36 850.77 283.54 854.63 288.4" fill="#4a421e" transform="translate(-692.66 -105.79)"/><path fill="#5b5020" d="m177.44 207.73c0.212-1.059 0.324-2.153 0.324-3.273 0-9.179-7.44-16.619-16.618-16.619s-16.618 7.44-16.618 16.619c0 1.12 0.112 2.215 0.324 3.273h32.6z"/><g fill="#f3ee00" transform="translate(-692.66 -105.79)"><rect y="293.13" width="2.014" x="839.56" height="21.874"/><rect y="293.13" width="2.014" x="844.79" height="21.874"/><rect y="293.13" width="2.014" x="850.03" height="21.874"/><rect y="293.13" width="2.014" x="855.27" height="21.874"/><rect y="293.13" width="2.015" x="860.5" height="21.872"/><rect y="293.13" width="2.014" x="865.74" height="21.872"/></g><g fill="#205b2c" transform="translate(-692.66 -105.79)"><circle cy="393.31" cx="1061.5" r="2.807"/><rect y="386.09" width="3.12" x="1062.5" height="16.247"/><rect y="391" width="0.784" x="1061.8" height="6.428"/></g><path fill="#205b2c" d="m371.64 308.11c0.255 0.052 2.525 0.547 3.521 2.04 0.971 1.456 0.318 5.441 0.178 6.227l-1.49-0.268c0.353-1.971 0.474-4.489 0.053-5.12-0.551-0.827-2.036-1.288-2.562-1.396l0.3-1.48z"/><rect height="11.782" width="1.531" y="290.08" x="368.64" fill="#959190"/><rect height="11.782" width="1.53" y="290.08" x="366.84" fill="#959190"/><rect height="8.935" width="1.896" y="298.92" x="367.64" fill="#205b2c"/><rect height="3.137" width="6.428" y="287.92" x="365.44" fill="#00f3c1"/><polygon points="1062.7 411.19 1063.8 411.19 1064.5 413.49 1064.5 425.68 1063.4 425.68 1063.4 413.52" fill="#205b2c" transform="translate(-692.66 -105.79)"/><rect height="1.575" width="1.577" y="313.46" x="370.54" fill="#959190"/><rect height="1.575" width="1.575" y="316.86" x="370.54" fill="#959190"/><rect height="11" width="1.071" y="310.09" x="368.84" fill="#205b2c"/><rect height="1.576" width="1.577" y="314.66" x="368.54" fill="#959190"/><rect height="1.577" width="1.575" y="318.06" x="368.54" fill="#959190"/><rect height="10.343" width="1.072" y="309.87" x="366.94" fill="#205b2c"/><rect height="1.576" width="1.576" y="313.78" x="366.64" fill="#959190"/><rect height="1.576" width="1.575" y="317.18" x="366.64" fill="#959190"/><polygon points="1058.4 411.53 1059.4 411.53 1058.8 413.64 1058.8 424.74 1057.7 424.74 1057.7 413.64" fill="#205b2c" transform="translate(-692.66 -105.79)"/><rect height="1.576" width="1.576" y="312.52" x="364.84" fill="#959190"/><rect height="1.575" width="1.576" y="315.92" x="364.84" fill="#959190"/><rect height="2.806" width="7.6" y="307.44" x="364.84" fill="#00f3c1"/><rect height="2.163" width="5.615" y="303.67" x="365.64" fill="#00f3c1"/><rect height="1.906" width="5.025" y="298.16" x="366.04" fill="#205b2c"/><rect transform="rotate(186.26)" height="1.2549" width="1.8279" y="-271.6" x="-407.63" fill="#959190"/><rect transform="rotate(133.34)" height="1.2561" width="1.8281" y="-485.32" x="-32.03" fill="#959190"/><g fill="#205b2c" transform="translate(-692.66 -105.79)"><circle cy="393.31" cx="1112.1" r="2.807"/><rect y="386.09" width="3.12" x="1108" height="16.247"/><rect y="391" width="0.784" x="1111" height="6.428"/></g><path fill="#205b2c" d="m416.74 308.11c-0.255 0.052-2.525 0.547-3.521 2.04-0.971 1.456-0.318 5.441-0.178 6.227l1.49-0.268c-0.353-1.971-0.475-4.489-0.053-5.12 0.551-0.827 2.036-1.288 2.562-1.396l-0.3-1.48z"/><rect height="11.782" width="1.531" y="290.08" x="418.14" fill="#959190"/><rect height="11.782" width="1.53" y="290.08" x="419.94" fill="#959190"/><rect height="8.935" width="1.896" y="298.92" x="418.74" fill="#205b2c"/><rect height="3.137" width="6.429" y="287.92" x="416.44" fill="#00f3c1"/><polygon points="1110.9 411.19 1109.8 411.19 1109.1 413.49 1109.1 425.68 1110.2 425.68 1110.2 413.52" fill="#205b2c" transform="translate(-692.66 -105.79)"/><rect height="1.575" width="1.577" y="313.46" x="416.24" fill="#959190"/><rect height="1.575" width="1.576" y="316.86" x="416.24" fill="#959190"/><rect height="11" width="1.071" y="310.09" x="418.44" fill="#205b2c"/><rect height="1.576" width="1.577" y="314.66" x="418.14" fill="#959190"/><rect height="1.577" width="1.576" y="318.06" x="418.14" fill="#959190"/><rect height="10.343" width="1.072" y="309.87" x="420.34" fill="#205b2c"/><rect height="1.576" width="1.576" y="313.78" x="420.04" fill="#959190"/><rect height="1.576" width="1.576" y="317.18" x="420.04" fill="#959190"/><polygon points="1115.3 411.53 1114.2 411.53 1114.8 413.64 1114.8 424.74 1115.9 424.74 1115.9 413.64" fill="#205b2c" transform="translate(-692.66 -105.79)"/><rect height="1.576" width="1.575" y="312.52" x="421.94" fill="#959190"/><rect height="1.575" width="1.576" y="315.92" x="421.94" fill="#959190"/><rect height="2.806" width="7.601" y="307.44" x="415.84" fill="#00f3c1"/><rect height="2.163" width="5.615" y="303.67" x="417.04" fill="#00f3c1"/><rect height="1.906" width="5.025" y="298.16" x="417.24" fill="#205b2c"/><rect transform="rotate(-6.2577)" height="1.2539" width="1.8279" y="356.22" x="375.84" fill="#959190"/><rect transform="rotate(46.645)" height="1.256" width="1.828" y="-89.12" x="509.03" fill="#959190"/><rect height="25.764" width="2.022" y="247.4" x="393.14" fill="#ff400d"/><path fill="#959190" d="m395.44 312.42v-4.724h-1.894v4.719c-3.906 0.462-6.949 3.789-6.949 7.817 0 0.364 0.294 0.658 0.659 0.658h2.443c0.363 0 0.657-0.294 0.657-0.658s-0.294-0.659-0.657-0.659h-1.26c0.33-3.039 2.91-5.414 6.035-5.414 3.126 0 5.705 2.375 6.035 5.414h-1.258c-0.365 0-0.66 0.295-0.66 0.659s0.295 0.658 0.66 0.658h2.442c0.363 0 0.659-0.295 0.659-0.658 0.1-4.02-3-7.34-6.8-7.82z"/><path fill="#205b2c" d="m398.64 308.53c0 1.12-0.907 2.027-2.026 2.027h-4.298c-1.118 0-2.026-0.907-2.026-2.026v-0.599c0-1.119 0.909-2.027 2.026-2.027h4.298c1.12 0 2.026 0.908 2.026 2.027v0.6z"/><path fill="#00f3c1" d="m398.84 322.83c0 2.245-1.818 4.062-4.062 4.062h-0.617c-2.244 0-4.062-1.817-4.062-4.062v-3.158c0-2.243 1.818-4.062 4.062-4.062h0.617c2.244 0 4.062 1.819 4.062 4.062v3.16z"/><path fill="#00f3c1" d="m412.04 278.44c0-0.129 0.01-0.258 0.01-0.388 0-9.768-7.917-17.685-17.684-17.685s-17.685 7.917-17.685 17.685c0 0.13 0.01 0.259 0.01 0.388h-4.27v30.334h43.63v-30.334h-3.9z"/><path d="m398.24 316.84" stroke="#48a953" stroke-miterlimit="10" stroke-width=".336" fill="none"/><path fill="#ff400d" d="m401.24 272.62c-0.623-1.272-2.06-4.766-7.836-4.819v-0.005c-0.022 0-0.042 0.003-0.064 0.003s-0.042-0.003-0.064-0.003v0.005c-5.776 0.054-7.213 3.547-7.836 4.819-0.633 1.292 0.224 2.355 0.224 2.355l2.692 3.87 4.984-0.011 4.984 0.011 2.692-3.87c-0.1 0 0.8-1.06 0.2-2.35z"/><polyline points="1084.5 383.66 1083.3 378.83 1087.1 383.69" fill="#fff" transform="translate(-692.66 -105.79)"/><path fill="#205b2c" d="m409.94 303.03c0.212-1.059 0.324-2.153 0.324-3.273 0-9.179-7.44-16.619-16.619-16.619-9.178 0-16.618 7.44-16.618 16.619 0 1.12 0.112 2.215 0.324 3.273h32.6z"/><g fill="#00f3c1" transform="translate(-692.66 -105.79)"><rect y="388.42" width="2.014" x="1072.1" height="21.874"/><rect y="388.42" width="2.014" x="1077.3" height="21.874"/><rect y="388.42" width="2.015" x="1082.5" height="21.874"/><rect y="388.42" width="2.015" x="1087.8" height="21.874"/><rect y="388.42" width="2.015" x="1093" height="21.872"/><rect y="388.42" width="2.014" x="1098.3" height="21.872"/></g><g fill="#475b5a" transform="translate(-692.66 -105.79)"><circle cy="393.31" cx="892.07" r="2.807"/><rect y="386.09" width="3.12" x="893.06" height="16.247"/><rect y="391" width="0.784" x="892.39" height="6.428"/></g><path fill="#475b5a" d="m202.17 308.11c0.255 0.052 2.525 0.547 3.521 2.04 0.971 1.456 0.318 5.441 0.178 6.227l-1.49-0.268c0.353-1.971 0.474-4.489 0.053-5.12-0.551-0.827-2.036-1.288-2.562-1.396l0.3-1.48z"/><rect height="11.782" width="1.531" y="290.08" x="199.18" fill="#959595"/><rect height="11.782" width="1.53" y="290.08" x="197.43" fill="#959595"/><rect height="8.935" width="1.896" y="298.92" x="198.2" fill="#475b5a"/><rect height="3.137" width="6.428" y="287.92" x="196.04" fill="#b5bec9"/><polygon points="893.27 411.19 894.34 411.19 895.07 413.49 895.07 425.68 894 425.68 894 413.52" fill="#475b5a" transform="translate(-692.66 -105.79)"/><rect height="1.575" width="1.577" y="313.46" x="201.09" fill="#959595"/><rect height="1.575" width="1.576" y="316.86" x="201.09" fill="#959595"/><rect height="11" width="1.071" y="310.09" x="199.38" fill="#475b5a"/><rect height="1.576" width="1.577" y="314.66" x="199.14" fill="#959595"/><rect height="1.577" width="1.576" y="318.06" x="199.13" fill="#959595"/><rect height="10.343" width="1.072" y="309.87" x="197.49" fill="#475b5a"/><rect height="1.576" width="1.576" y="313.78" x="197.24" fill="#959595"/><rect height="1.576" width="1.576" y="317.18" x="197.24" fill="#959595"/><polygon points="888.92 411.53 889.99 411.53 889.36 413.64 889.36 424.74 888.29 424.74 888.29 413.64" fill="#475b5a" transform="translate(-692.66 -105.79)"/><rect height="1.576" width="1.575" y="312.52" x="195.39" fill="#959595"/><rect height="1.575" width="1.576" y="315.92" x="195.38" fill="#959595"/><rect height="2.806" width="7.601" y="307.44" x="195.38" fill="#b5bec9"/><rect height="2.163" width="5.615" y="303.67" x="196.21" fill="#b5bec9"/><rect height="1.906" width="5.025" y="298.16" x="196.63" fill="#475b5a"/><rect transform="rotate(186.26)" height="1.2539" width="1.8279" y="-290.06" x="-239.3" fill="#959595"/><rect transform="matrix(-.68645 .72717 -.72717 -.68645 0 0)" height="1.256" width="1.828" y="-362.18" x="84.109" fill="#959595"/><g fill="#475b5a" transform="translate(-692.66 -105.79)"><circle cy="393.31" cx="942.69" r="2.807"/><rect y="386.09" width="3.12" x="938.58" height="16.247"/><rect y="391" width="0.784" x="941.59" height="6.428"/></g><path fill="#475b5a" d="m247.27 308.11c-0.255 0.052-2.525 0.547-3.521 2.04-0.971 1.456-0.318 5.441-0.178 6.227l1.49-0.268c-0.353-1.971-0.474-4.489-0.053-5.12 0.551-0.827 2.036-1.288 2.562-1.396l-0.3-1.48z"/><rect height="11.782" width="1.531" y="290.08" x="248.73" fill="#959595"/><rect height="11.782" width="1.53" y="290.08" x="250.48" fill="#959595"/><rect height="8.935" width="1.896" y="298.92" x="249.34" fill="#475b5a"/><rect height="3.137" width="6.428" y="287.92" x="246.97" fill="#b5bec9"/><polygon points="941.49 411.19 940.42 411.19 939.69 413.49 939.69 425.68 940.76 425.68 940.76 413.52" fill="#475b5a" transform="translate(-692.66 -105.79)"/><rect height="1.575" width="1.577" y="313.46" x="246.77" fill="#959595"/><rect height="1.575" width="1.575" y="316.86" x="246.78" fill="#959595"/><rect height="11" width="1.071" y="310.09" x="248.98" fill="#475b5a"/><rect height="1.576" width="1.577" y="314.66" x="248.73" fill="#959595"/><rect height="1.577" width="1.576" y="318.06" x="248.73" fill="#959595"/><rect height="10.343" width="1.072" y="309.87" x="250.88" fill="#475b5a"/><rect height="1.576" width="1.576" y="313.78" x="250.62" fill="#959595"/><rect height="1.576" width="1.576" y="317.18" x="250.62" fill="#959595"/><polygon points="945.84 411.53 944.77 411.53 945.4 413.64 945.4 424.74 946.47 424.74 946.47 413.64" fill="#475b5a" transform="translate(-692.66 -105.79)"/><rect height="1.576" width="1.576" y="312.52" x="252.48" fill="#959595"/><rect height="1.575" width="1.576" y="315.92" x="252.48" fill="#959595"/><rect height="2.806" width="7.601" y="307.44" x="246.46" fill="#b5bec9"/><rect height="2.163" width="5.615" y="303.67" x="247.61" fill="#b5bec9"/><rect height="1.906" width="5.025" y="298.16" x="247.78" fill="#475b5a"/><rect transform="rotate(-6.2577)" height="1.2549" width="1.8279" y="337.76" x="207.46" fill="#959595"/><rect transform="rotate(46.657)" height="1.2561" width="1.8281" y="34.037" x="392.73" fill="#959595"/><rect height="25.764" width="2.022" y="247.4" x="223.75" fill="#e4e5ed"/><path fill="#959595" d="m225.97 312.42v-4.724h-1.894v4.719c-3.906 0.462-6.949 3.789-6.949 7.817 0 0.364 0.294 0.658 0.659 0.658h2.444c0.363 0 0.657-0.294 0.657-0.658s-0.294-0.659-0.657-0.659h-1.26c0.33-3.039 2.91-5.414 6.035-5.414 3.126 0 5.706 2.375 6.036 5.414h-1.259c-0.364 0-0.66 0.295-0.66 0.659s0.295 0.658 0.66 0.658h2.442c0.364 0 0.659-0.295 0.659-0.658 0-4.02-3.02-7.34-6.91-7.82z"/><path fill="#475b5a" d="m229.2 308.53c0 1.12-0.906 2.027-2.026 2.027h-4.298c-1.118 0-2.026-0.907-2.026-2.026v-0.599c0-1.119 0.909-2.027 2.026-2.027h4.298c1.12 0 2.026 0.908 2.026 2.027v0.6z"/><path fill="#1df32b" d="m229.39 322.83c0 2.245-1.818 4.062-4.062 4.062h-0.617c-2.244 0-4.062-1.817-4.062-4.062v-3.158c0-2.243 1.818-4.062 4.062-4.062h0.617c2.244 0 4.062 1.819 4.062 4.062v3.16z"/><path fill="#b5bec9" d="m242.56 278.44c0.002-0.129 0.01-0.258 0.01-0.388 0-9.768-7.917-17.685-17.684-17.685s-17.684 7.917-17.684 17.685c0 0.13 0.007 0.259 0.009 0.388h-4.27v30.334h43.63v-30.334h-4.02z"/><path d="m228.8 316.84" stroke="#91a9a5" stroke-miterlimit="10" stroke-width=".336" fill="none"/><path fill="#1df32b" d="m231.76 272.62c-0.623-1.272-2.06-4.766-7.837-4.819v-0.005c-0.022 0-0.042 0.003-0.064 0.003s-0.042-0.003-0.064-0.003v0.005c-5.776 0.054-7.213 3.547-7.836 4.819-0.633 1.292 0.224 2.355 0.224 2.355l2.693 3.87 4.984-0.011 4.984 0.011 2.692-3.87c0.02 0 0.88-1.06 0.24-2.35z"/><polyline points="915.12 383.66 913.86 378.83 917.71 383.69" fill="#414a4a" transform="translate(-692.66 -105.79)"/><path fill="#475b5a" d="m240.52 303.03c0.212-1.059 0.324-2.153 0.324-3.273 0-9.179-7.44-16.619-16.618-16.619s-16.619 7.44-16.619 16.619c0 1.12 0.112 2.215 0.324 3.273h32.6z"/><g fill="#b5bec9" transform="translate(-692.66 -105.79)"><rect y="388.42" width="2.014" x="902.64" height="21.874"/><rect y="388.42" width="2.014" x="907.88" height="21.874"/><rect y="388.42" width="2.015" x="913.12" height="21.874"/><rect y="388.42" width="2.014" x="918.35" height="21.874"/><rect y="388.42" width="2.015" x="923.59" height="21.872"/><rect y="388.42" width="2.014" x="928.83" height="21.872"/></g><path fill="#3c404e" d="m142.54 128.65v-3.998h-1.603v3.993c-3.307 0.39201-5.882 3.207-5.882 6.618 0 0.308 0.25 0.557 0.558 0.557h2.068c0.308 0 0.556-0.25 0.556-0.557 0-0.308-0.249-0.55801-0.556-0.55801h-1.066c0.278-2.573 2.463-4.583 5.108-4.583 2.646 0 4.829 2.01 5.109 4.583h-1.066c-0.308 0-0.558 0.25001-0.558 0.55801s0.25 0.557 0.558 0.557h2.067c0.309 0 0.559-0.25 0.559-0.557-0.01-3.4-2.57-6.2-5.86-6.61z"/><path fill="#f56d4d" d="m145.27 125.36c0 0.948-0.768 1.716-1.715 1.716h-3.638c-0.946 0-1.715-0.76801-1.715-1.716v-0.50601c0-0.947 0.769-1.716 1.715-1.716h3.638c0.948 0 1.715 0.769 1.715 1.716v0.51001z"/><path fill="#1e2027" d="m145.44 137.46c0 1.9-1.539 3.438-3.438 3.438h-0.522c-1.899 0-3.438-1.539-3.438-3.438v-2.674c0-1.899 1.54-3.438 3.438-3.438h0.522c1.899 0 3.438 1.54 3.438 3.438v2.67z"/><path fill="#3c404e" d="m171.26 128.65v-3.999h-1.604v3.994c-3.307 0.39101-5.882 3.207-5.882 6.617 0 0.308 0.25 0.557 0.558 0.557h2.068c0.308 0 0.557-0.25 0.557-0.557 0-0.308-0.249-0.55801-0.557-0.55801h-1.066c0.279-2.573 2.463-4.583 5.109-4.583s4.829 2.01 5.109 4.583h-1.066c-0.308 0-0.559 0.25001-0.559 0.55801s0.25 0.557 0.559 0.557h2.067c0.308 0 0.558-0.25 0.558-0.557-0.01-3.4-2.57-6.2-5.86-6.61z"/><path fill="#f56d4d" d="m173.99 125.36c0 0.948-0.768 1.716-1.715 1.716h-3.639c-0.946 0-1.715-0.76801-1.715-1.716v-0.50601c0-0.947 0.769-1.716 1.715-1.716h3.639c0.947 0 1.715 0.769 1.715 1.716v0.51001z"/><path fill="#1e2027" d="m174.16 137.46c0 1.9-1.54 3.438-3.438 3.438h-0.522c-1.899 0-3.438-1.539-3.438-3.438v-2.674c0-1.899 1.539-3.438 3.438-3.438h0.522c1.899 0 3.438 1.54 3.438 3.438v2.67z"/><path fill="#3c404e" d="m121.14 114.38c-0.53-7.269 1.077-12.801 4.778-16.445 5.086-5.006 12.173-4.44 12.475-4.415l-0.297 3.409c-0.057-0.005-5.863-0.434-9.802 3.468-2.935 2.908-4.194 7.529-3.742 13.733l-3.42 0.26z"/><path fill="#f56d4d" d="m119.35 121.81c-0.417 0-0.782-0.305-0.844-0.731l-0.985-6.727 11.148-1.185 1.867 6.406c0.132 0.454-0.128 0.929-0.582 1.062-0.451 0.133-0.928-0.128-1.061-0.582l-1.467-5.033-7.956 0.846 0.727 4.965c0.069 0.46701-0.254 0.90101-0.722 0.96901-0.05-0.01-0.09-0.01-0.13-0.01z"/><path fill="#3c404e" d="m190.36 114.38c0.53-7.269-1.077-12.802-4.778-16.445-5.086-5.006-12.174-4.44-12.475-4.415l0.297 3.409c0.057-0.005 5.863-0.434 9.802 3.468 2.936 2.908 4.194 7.529 3.742 13.733l3.42 0.26z"/><path fill="#f56d4d" d="m192.14 121.81c0.417 0 0.782-0.305 0.845-0.731l0.984-6.726-11.147-1.185-1.868 6.406c-0.132 0.454 0.128 0.929 0.582 1.062 0.451 0.133 0.928-0.128 1.061-0.582l1.467-5.033 7.955 0.846-0.726 4.966c-0.069 0.46701 0.254 0.90101 0.722 0.96901 0.07-0.01 0.11-0.01 0.15-0.01z"/><path fill="#89d4cc" d="m168.45 99.079c0 5.729-4.644 10.373-10.372 10.373h-2.998c-5.729 0-10.373-4.644-10.373-10.373v-31.119c0-5.729 4.644-10.373 10.373-10.373h2.998c5.729 0 10.372 4.644 10.372 10.373v31.12z"/><path fill="#47b1e2" d="m160.16 94.729c0 1.979-1.605 3.584-3.584 3.584s-3.584-1.605-3.584-3.584v-18.797c0-1.979 1.605-3.584 3.584-3.584s3.584 1.605 3.584 3.584v18.8z"/><rect height="43.071" width="43.07" y="82.839" x="134.85" fill="#3c404e"/><path fill="#f56d4d" d="m169.91 95.719c0 2.438-1.977 4.415-4.415 4.415h-17.827c-2.438 0-4.414-1.977-4.414-4.415s1.976-4.414 4.414-4.414l17.827 0.001c2.43 0 4.41 1.98 4.41 4.42z"/><g fill="#3c404e" transform="translate(-692.66 -105.79)"><circle cy="201.51" cx="841.2" r="2.301"/><circle cy="201.51" cx="857.28" r="2.301"/></g><g fill="#7b3727" transform="translate(-692.66 -105.79)"><circle cy="214.92" cx="843.08" r="1.578"/><circle cy="214.92" cx="839.08" r="1.578"/><circle cy="214.92" cx="835.08" r="1.578"/></g><g fill="#b8523a" transform="translate(-692.66 -105.79)"><circle cy="219.52" cx="843.08" r="1.578"/><circle cy="219.52" cx="839.08" r="1.578"/><circle cy="219.52" cx="835.08" r="1.578"/></g><g fill="#f56d4d" transform="translate(-692.66 -105.79)"><circle cy="224.14" cx="843.08" r="1.577"/><circle cy="224.14" cx="839.08" r="1.577"/><circle cy="224.14" cx="835.08" r="1.577"/></g><circle cy="64.359" cx="161.67" r="4.076" fill="#c4eae5"/><circle cy="74.909" cx="157.85" r="1.33" fill="#b5e0f3"/><path fill="#403c4e" d="m131.1 314.99v-3.998h-1.604v3.993c-3.307 0.392-5.882 3.207-5.882 6.618 0 0.308 0.25 0.557 0.558 0.557h2.068c0.308 0 0.556-0.249 0.556-0.557 0-0.309-0.249-0.558-0.556-0.558h-1.066c0.278-2.573 2.462-4.583 5.108-4.583s4.829 2.01 5.109 4.583h-1.066c-0.308 0-0.558 0.249-0.558 0.558 0 0.308 0.25 0.557 0.558 0.557h2.067c0.309 0 0.558-0.249 0.558-0.557-0.01-3.4-2.57-6.21-5.86-6.61z"/><path fill="#f5a44d" d="m133.83 311.7c0 0.948-0.768 1.716-1.715 1.716h-3.638c-0.946 0-1.715-0.768-1.715-1.716v-0.506c0-0.947 0.769-1.716 1.715-1.716h3.638c0.948 0 1.715 0.769 1.715 1.716v0.51z"/><path fill="#1e2027" d="m134 323.8c0 1.899-1.539 3.438-3.438 3.438h-0.522c-1.899 0-3.438-1.538-3.438-3.438v-2.675c0-1.898 1.54-3.438 3.438-3.438h0.522c1.898 0 3.438 1.54 3.438 3.438v2.67z"/><path fill="#403c4e" d="m159.82 314.99v-3.998h-1.603v3.994c-3.307 0.391-5.882 3.207-5.882 6.617 0 0.308 0.25 0.557 0.558 0.557h2.068c0.307 0 0.557-0.249 0.557-0.557 0-0.309-0.25-0.558-0.557-0.558h-1.066c0.279-2.573 2.463-4.583 5.109-4.583s4.829 2.01 5.109 4.583h-1.066c-0.308 0-0.559 0.249-0.559 0.558 0 0.308 0.25 0.557 0.559 0.557h2.067c0.308 0 0.558-0.249 0.558-0.557-0.01-3.4-2.57-6.21-5.86-6.61z"/><path fill="#f5a44d" d="m162.55 311.7c0 0.948-0.768 1.716-1.715 1.716h-3.638c-0.947 0-1.715-0.768-1.715-1.716v-0.506c0-0.947 0.769-1.716 1.715-1.716h3.638c0.947 0 1.715 0.769 1.715 1.716v0.51z"/><path fill="#1e2027" d="m162.72 323.8c0 1.899-1.54 3.438-3.438 3.438h-0.522c-1.899 0-3.438-1.538-3.438-3.438v-2.675c0-1.898 1.539-3.438 3.438-3.438h0.522c1.899 0 3.438 1.54 3.438 3.438v2.67z"/><path fill="#403c4e" d="m109.7 300.72c-0.53-7.269 1.078-12.801 4.778-16.444 5.086-5.006 12.173-4.44 12.475-4.415l-0.297 3.409c-0.057-0.005-5.863-0.434-9.802 3.468-2.936 2.908-4.194 7.529-3.742 13.734l-3.42 0.24z"/><path fill="#f5a44d" d="m107.91 308.15c-0.417 0-0.782-0.306-0.845-0.731l-0.984-6.727 11.147-1.185 1.868 6.406c0.132 0.454-0.128 0.929-0.582 1.062-0.451 0.134-0.928-0.128-1.061-0.582l-1.467-5.033-7.956 0.847 0.727 4.965c0.069 0.467-0.254 0.901-0.722 0.969-0.05-0.02-0.09-0.01-0.13-0.01z"/><path fill="#403c4e" d="m178.92 300.72c0.53-7.27-1.077-12.802-4.778-16.445-5.086-5.006-12.174-4.44-12.475-4.415l0.297 3.409c0.057-0.005 5.863-0.434 9.802 3.468 2.936 2.908 4.194 7.529 3.742 13.734l3.42 0.26z"/><path fill="#f5a44d" d="m180.7 308.15c0.417 0 0.782-0.306 0.845-0.731l0.984-6.727-11.147-1.185-1.868 6.406c-0.132 0.454 0.128 0.929 0.582 1.062 0.451 0.134 0.928-0.128 1.061-0.582l1.467-5.033 7.955 0.847-0.727 4.965c-0.068 0.467 0.254 0.901 0.722 0.969 0.07-0.02 0.11-0.01 0.15-0.01z"/><path fill="#899dd4" d="m157.01 285.41c0 5.729-4.644 10.373-10.372 10.373h-3c-5.729 0-10.373-4.644-10.373-10.373v-31.119c0-5.729 4.644-10.373 10.373-10.373h2.998c5.729 0 10.372 4.645 10.372 10.373v31.12z"/><path fill="#474be2" d="m148.72 281.07c0 1.979-1.605 3.584-3.584 3.584s-3.584-1.605-3.584-3.584v-18.797c0-1.979 1.605-3.585 3.584-3.585s3.584 1.605 3.584 3.585v18.8z"/><rect height="43.071" width="43.07" y="269.17" x="123.41" fill="#403c4e"/><path fill="#f5a44d" d="m158.47 282.05c0 2.438-1.977 4.415-4.415 4.415h-17.827c-2.438 0-4.414-1.977-4.414-4.415s1.976-4.414 4.414-4.414l17.827 0.001c2.43 0 4.41 1.97 4.41 4.41z"/><g fill="#403c4e" transform="translate(-692.66 -105.79)"><circle cy="387.84" cx="829.76" r="2.301"/><circle cy="387.84" cx="845.84" r="2.301"/></g><g fill="#7b5227" transform="translate(-692.66 -105.79)"><circle cy="401.25" cx="831.64" r="1.577"/><circle cy="401.25" cx="827.64" r="1.577"/><circle cy="401.25" cx="823.64" r="1.577"/></g><g fill="#b87b3a" transform="translate(-692.66 -105.79)"><circle cy="405.86" cx="831.64" r="1.578"/><circle cy="405.86" cx="827.64" r="1.578"/><circle cy="405.86" cx="823.64" r="1.578"/></g><g fill="#f5a44d" transform="translate(-692.66 -105.79)"><circle cy="410.47" cx="831.64" r="1.577"/><circle cy="410.47" cx="827.64" r="1.577"/><circle cy="410.47" cx="823.64" r="1.577"/></g><circle cy="250.69" cx="150.23" r="4.076" fill="#c4ceea"/><circle cy="261.25" cx="146.41" r="1.33" fill="#b5b7f3"/><path fill="#f30059" d="m292.23 314.99v-3.998h-1.604v3.993c-3.307 0.392-5.882 3.207-5.882 6.618 0 0.308 0.25 0.557 0.558 0.557h2.068c0.307 0 0.556-0.249 0.556-0.557 0-0.309-0.249-0.558-0.556-0.558h-1.066c0.279-2.573 2.463-4.583 5.109-4.583s4.829 2.01 5.109 4.583h-1.066c-0.308 0-0.558 0.249-0.558 0.558 0 0.308 0.25 0.557 0.558 0.557h2.067c0.308 0 0.558-0.249 0.558-0.557-0.01-3.4-2.57-6.21-5.86-6.61z"/><path fill="#f5d74d" d="m294.96 311.7c0 0.948-0.768 1.716-1.715 1.716h-3.638c-0.947 0-1.715-0.768-1.715-1.716v-0.506c0-0.947 0.769-1.716 1.715-1.716h3.638c0.947 0 1.715 0.769 1.715 1.716v0.51z"/><path fill="#1e2027" d="m295.13 323.8c0 1.899-1.539 3.438-3.438 3.438h-0.522c-1.898 0-3.438-1.538-3.438-3.438v-2.675c0-1.898 1.54-3.438 3.438-3.438h0.522c1.899 0 3.438 1.54 3.438 3.438v2.67z"/><path fill="#f30059" d="m320.94 314.99v-3.998h-1.603v3.994c-3.307 0.391-5.882 3.207-5.882 6.617 0 0.308 0.25 0.557 0.558 0.557h2.068c0.308 0 0.557-0.249 0.557-0.557 0-0.309-0.25-0.558-0.557-0.558h-1.066c0.279-2.573 2.463-4.583 5.108-4.583 2.646 0 4.83 2.01 5.109 4.583h-1.065c-0.308 0-0.559 0.249-0.559 0.558 0 0.308 0.25 0.557 0.559 0.557h2.067c0.308 0 0.558-0.249 0.558-0.557 0-3.4-2.6-6.21-5.9-6.61z"/><path fill="#f5d74d" d="m323.64 311.7c0 0.948-0.768 1.716-1.715 1.716h-3.638c-0.947 0-1.715-0.768-1.715-1.716v-0.506c0-0.947 0.769-1.716 1.715-1.716h3.638c0.947 0 1.715 0.769 1.715 1.716v0.51z"/><path fill="#1e2027" d="m323.84 323.8c0 1.899-1.54 3.438-3.438 3.438h-0.522c-1.899 0-3.438-1.538-3.438-3.438v-2.675c0-1.898 1.54-3.438 3.438-3.438h0.522c1.899 0 3.438 1.54 3.438 3.438v2.67z"/><path fill="#f30059" d="m270.83 300.72c-0.53-7.269 1.077-12.801 4.778-16.444 5.086-5.006 12.173-4.44 12.475-4.415l-0.297 3.409c-0.057-0.005-5.863-0.434-9.802 3.468-2.936 2.908-4.194 7.529-3.742 13.734l-3.41 0.24z"/><path fill="#f5d74d" d="m269.04 308.15c-0.417 0-0.782-0.306-0.845-0.731l-0.984-6.727 11.147-1.185 1.867 6.406c0.133 0.454-0.128 0.929-0.582 1.062-0.45 0.134-0.928-0.128-1.06-0.582l-1.467-5.033-7.956 0.847 0.727 4.965c0.069 0.467-0.255 0.901-0.722 0.969-0.05-0.02-0.1-0.01-0.14-0.01z"/><path fill="#f30059" d="m340.04 300.72c0.53-7.27-1.077-12.802-4.777-16.445-5.086-5.006-12.174-4.44-12.475-4.415l0.297 3.409c0.057-0.005 5.863-0.434 9.802 3.468 2.936 2.908 4.194 7.529 3.742 13.734l3.5 0.26z"/><path fill="#f5d74d" d="m341.84 308.15c0.417 0 0.783-0.306 0.845-0.731l0.984-6.727-11.147-1.185-1.868 6.406c-0.133 0.454 0.128 0.929 0.582 1.062 0.451 0.134 0.928-0.128 1.061-0.582l1.467-5.033 7.955 0.847-0.727 4.965c-0.069 0.467 0.254 0.901 0.722 0.969-0.1-0.02 0-0.01 0-0.01z"/><path fill="#a089d4" d="m318.14 285.41c0 5.729-4.644 10.373-10.372 10.373h-2.999c-5.729 0-10.373-4.644-10.373-10.373v-31.119c0-5.729 4.644-10.373 10.373-10.373h2.999c5.729 0 10.372 4.645 10.372 10.373v31.12z"/><path fill="#9b47e2" d="m309.84 281.07c0 1.979-1.605 3.584-3.584 3.584-1.98 0-3.585-1.605-3.585-3.584v-18.797c0-1.979 1.605-3.585 3.585-3.585 1.979 0 3.584 1.605 3.584 3.585v18.8z"/><rect height="43.071" width="43.07" y="269.17" x="284.54" fill="#f30059"/><path fill="#f5d74d" d="m319.64 282.05c0 2.438-1.977 4.415-4.415 4.415h-17.827c-2.438 0-4.415-1.977-4.415-4.415s1.977-4.414 4.415-4.414l17.827 0.001c2.4 0 4.4 1.97 4.4 4.41z"/><g fill="#f30059" transform="translate(-692.66 -105.79)"><circle cy="387.84" cx="990.9" r="2.301"/><circle cy="387.84" cx="1007" r="2.301"/></g><g fill="#7b6c27" transform="translate(-692.66 -105.79)"><circle cy="401.25" cx="992.77" r="1.577"/><circle cy="401.25" cx="988.77" r="1.577"/><circle cy="401.25" cx="984.77" r="1.577"/></g><g fill="#b8a13a" transform="translate(-692.66 -105.79)"><circle cy="405.86" cx="992.77" r="1.578"/><circle cy="405.86" cx="988.77" r="1.578"/><circle cy="405.86" cx="984.77" r="1.578"/></g><g fill="#f5d74d" transform="translate(-692.66 -105.79)"><circle cy="410.47" cx="992.77" r="1.577"/><circle cy="410.47" cx="988.77" r="1.577"/><circle cy="410.47" cx="984.77" r="1.577"/></g><circle cy="250.69" cx="311.34" r="4.076" fill="#d0c4ea"/><circle cy="261.25" cx="307.54" r="1.33" fill="#d6b5f3"/><rect height="304.57" width="1.741" y="41.919" x="446.04" fill="#878787"/><rect height="7.293" width="340.1" y="44.679" x="97.288" fill="#ccc5cd"/><polyline points="788.21 156.77 788.21 158.51 1130 158.51 1130 156.77" fill="#eaeaea" transform="translate(-692.66 -105.79)"/><g fill="#ccc5cd" transform="translate(-692.66 -105.79)"><rect y="242.78" width="340.1" x="789.95" height="10.433"/><rect y="337.85" width="340.1" x="789.95" height="10.433"/><rect y="432.92" width="340.1" x="789.95" height="10.436"/><rect y="147.71" width="10.436" x="1130" height="304.57"/></g><polyline points="1131.8 156.41 1130 156.41 1130 442.42 1131.8 442.42" fill="#eaeaea" transform="translate(-692.66 -105.79)"/><rect height="1.738" width="340.1" y="136.99" x="97.288" fill="#eaeaea"/><rect height="1.738" width="340.1" y="145.68" x="97.288" fill="#878787"/><rect height="1.737" width="340.1" y="240.75" x="97.288" fill="#878787"/><rect height="1.74" width="340.1" y="327.13" x="97.288" fill="#eaeaea"/><rect height="1.742" width="340.1" y="335.82" x="97.288" fill="#878787"/><rect height="304.57" width="10.436" y="41.919" x="86.858" fill="#ccc5cd"/><polyline points="788.21 443.59 789.95 443.59 789.95 157.58 788.21 157.58" fill="#eaeaea" transform="translate(-692.66 -105.79)"/><rect height="304.57" width="1.742" y="41.919" x="86.858" fill="#878787"/></svg>
