<?xml version="1.0" standalone="no"?>
<!DOCTYPE svg PUBLIC "-//W3C//DTD SVG 20010904//EN"
 "http://www.w3.org/TR/2001/REC-SVG-20010904/DTD/svg10.dtd">
<svg version="1.0" xmlns="http://www.w3.org/2000/svg"
 width="162.000000pt" height="162.000000pt" viewBox="0 0 162.000000 162.000000"
 preserveAspectRatio="xMidYMid meet">
<metadata>
Created by potrace 1.11, written by Peter Selinger 2001-2013
</metadata>
<g transform="translate(0.000000,162.000000) scale(0.100000,-0.100000)"
fill="#000000" stroke="none">
<path d="M735 1476 c-16 -12 -20 -27 -20 -87 l0 -73 -60 -13 c-144 -33 -293
-140 -369 -265 -39 -64 -39 -65 -85 -65 -124 -2 -208 -94 -198 -215 9 -102 75
-168 180 -181 25 -3 32 -11 47 -55 59 -166 206 -308 380 -364 84 -27 223 -33
310 -13 167 38 323 160 392 305 20 41 40 87 46 101 9 24 16 27 59 27 88 0 171
61 192 140 41 155 -83 282 -244 249 -28 -6 -32 -3 -63 51 -57 100 -162 199
-256 242 -55 25 -177 58 -193 53 -7 -3 -13 1 -13 9 -4 116 -7 137 -22 152 -20
20 -58 21 -83 2z"/>
</g>
</svg>
